<?xml version="1.0" encoding="utf-8"?>
<!-- Generator: Adobe Illustrator 21.1.0, SVG Export Plug-In . SVG Version: 6.00 Build 0)  -->
<!DOCTYPE svg PUBLIC "-//W3C//DTD SVG 1.1//EN" "http://www.w3.org/Graphics/SVG/1.1/DTD/svg11.dtd">
<svg version="1.1" id="Capa_1" xmlns="http://www.w3.org/2000/svg" xmlns:xlink="http://www.w3.org/1999/xlink" x="0px" y="0px"
	 viewBox="0 0 40 27" style="enable-background:new 0 0 40 27;" xml:space="preserve">
<style type="text/css">
	.st0{display:none;}
	.st1{display:inline;fill:#FFFFFF;}
	.st2{fill:#FFFFFF;}
</style>
<g class="st0">
	<path class="st1" d="M31.7,11.8l-20.9,4.9c0,0,0,0,0,0c-0.1,0-0.1,0-0.2,0.1c0,0-0.1,0-0.1,0.1c0,0-0.1,0.1-0.1,0.1
		c0,0-0.1,0.1-0.1,0.1c0,0-0.1,0.1-0.1,0.1c0,0-0.1,0.1-0.1,0.1c0,0,0,0,0,0c0,0,0,0.1-0.1,0.1c0,0-0.1,0.1-0.1,0.1
		c0,0,0,0.1-0.1,0.1c0,0,0,0.1-0.1,0.1c0,0,0,0.1,0,0.1c0,0,0,0.1,0,0.1c0,0.1,0,0.1,0,0.2c0,0,0,0.1,0,0.1c0,0.1,0,0.1,0,0.2
		c0,0,0,0.1,0,0.1c0,0,0,0,0,0c0,0,0,0.1,0,0.1c0,0.1,0,0.1,0.1,0.2c0,0,0,0.1,0.1,0.1c0,0.1,0.1,0.1,0.1,0.2c0,0,0,0.1,0.1,0.1
		c0,0.1,0.1,0.1,0.1,0.1c0,0,0,0,0,0l3,2.5c0.3,4.6,3.7,6.8,7.8,6.8c4.3,0,7.8-5.7,7.8-10.9l-12.4,2.7L14.6,19l17.9-4.2
		c0.8-0.2,1.4-1,1.2-1.9C33.4,12.1,32.6,11.6,31.7,11.8z"/>
	<path class="st1" d="M34.3,6c-0.2-0.8-1-1.4-1.9-1.1l-23,5.6c-0.8,0.2-1.4,1-1.1,1.9c0.2,0.7,0.8,1.2,1.5,1.2c0.1,0,0.2,0,0.4,0
		l23-5.6C34,7.7,34.5,6.8,34.3,6z"/>
	<path class="st1" d="M9,5.3C9.1,6,9.8,6.5,10.5,6.5c0.1,0,0.2,0,0.4,0l17.4-4.2c0.8-0.2,1.4-1,1.2-1.9c-0.2-0.8-1-1.4-1.9-1.2
		L10.1,3.4C9.3,3.6,8.8,4.5,9,5.3z"/>
	<path class="st1" d="M10.5,0.2c0.1,0,0.2,0,0.4,0l11.8-2.8c0.8-0.2,1.4-1,1.2-1.9c-0.2-0.8-1-1.4-1.9-1.2L10.1-2.9
		C9.3-2.7,8.8-1.8,9-1C9.1-0.3,9.8,0.2,10.5,0.2z"/>
</g>
<path class="st2" d="M37.4,1.7c-1.5-1-3.4-1-4.9-0.1c-1.6,0.9-2.3,2.5-2.3,4.1c0,1.5-0.7,3-1.8,4.1l-1.7,1.6
	c-0.9,0.9-2.1,1.4-3.3,1.3c-0.3,0-0.6,0-0.8,0.1c-1,0.2-2.4-0.3-3.1-0.9l-0.3-0.2c-0.9-0.8-1.5-1.9-1.6-3.1
	c-0.1-1.4-1.1-2.7-2.7-3.2c-1.4-0.4-2.9,0-3.9,1.1C9.9,7.5,9.7,8.8,10,10c0.3,1,0.2,2-0.4,2.8l-3.7,5.4c-0.6,0.8-1.4,1.4-2.4,1.5
	c-1.2,0.1-2.4,0.9-2.8,2.2c-0.4,1.2-0.2,2.5,0.7,3.4c1.6,1.7,4.2,1.4,5.4-0.4c0.6-0.8,0.7-1.8,0.5-2.8c-0.2-0.9,0-1.9,0.5-2.7
	l3.7-5.3c0.6-0.9,1.6-1.3,2.6-1.5c0,0,0.1,0,0.1,0c1.2-0.1,2.4,0.3,3.4,1.1l0.3,0.2c0.8,0.7,1.3,1.7,1.3,2.7c0,1.4,0.6,2.7,1.9,3.6
	c1.3,0.8,3,0.8,4.4-0.1c1.2-0.8,1.8-2,1.8-3.2c0.1-1.3,0.5-2.6,1.5-3.5l1.7-1.7c1.1-1,2.5-1.6,4-1.5c1.3,0.1,2.6-0.3,3.6-1.2
	C40.2,7.1,40,3.5,37.4,1.7z M5.3,24c-0.5,0.8-1.6,1-2.4,0.5c-0.8-0.5-1-1.6-0.5-2.4c0.3-0.5,0.8-0.8,1.4-0.8c0.3,0,0.7,0.1,1,0.3
	C5.6,22.1,5.8,23.2,5.3,24z M15.4,10c-0.5,1-1.9,1.3-2.8,0.8c-0.5-0.3-0.8-0.7-1-1.3c-0.1-0.5-0.1-1.1,0.2-1.6c0.4-0.6,1-1,1.8-1
	c0.4,0,0.7,0.1,1,0.3c0.5,0.3,0.8,0.7,1,1.3C15.8,9,15.7,9.5,15.4,10z M24.8,18.5c-0.9,0.9-2.5,0.9-3.4,0c-0.9-0.9-1-2.5,0-3.4
	c0.5-0.5,1.1-0.7,1.7-0.7c0.6,0,1.2,0.2,1.7,0.7c0.5,0.4,0.7,1.1,0.7,1.7C25.5,17.5,25.3,18.1,24.8,18.5z M36.7,7.7
	c-1.1,1-2.9,1-4-0.1c-0.5-0.5-0.8-1.3-0.8-2c0-0.7,0.3-1.4,0.9-2c0.5-0.5,1.2-0.8,1.9-0.8c0.8,0,1.5,0.3,2.1,0.9
	c0.5,0.5,0.8,1.3,0.8,2C37.6,6.5,37.3,7.2,36.7,7.7z"/>
</svg>
